<mxfile host="app.diagrams.net" modified="2022-08-19T12:58:20.497Z" agent="5.0 (X11; Linux x86_64) AppleWebKit/537.36 (KHTML, like Gecko) Chrome/102.0.5005.72 Safari/537.36" etag="Xx91cEqZRwYDQf48isyQ" version="20.2.2" type="github" pages="2">
  <diagram id="0ZRAcLww9Z4tQhr6w7hn" name="Page-1">
    <mxGraphModel dx="1422" dy="931" grid="1" gridSize="10" guides="1" tooltips="1" connect="1" arrows="1" fold="1" page="1" pageScale="1" pageWidth="850" pageHeight="1100" math="0" shadow="0">
      <root>
        <mxCell id="0" />
        <mxCell id="1" parent="0" />
        <mxCell id="_i-9csgD6HFUL7W8y_-q-2" value="&lt;b&gt;rollup&lt;br&gt;&lt;/b&gt;" style="rounded=1;whiteSpace=wrap;html=1;" parent="1" vertex="1">
          <mxGeometry x="160" y="360" width="80" height="40" as="geometry" />
        </mxCell>
        <mxCell id="W5sy4UJIiJLeMt3XoaJV-3" value="Alchemix Bridge" style="rounded=1;whiteSpace=wrap;html=1;" parent="1" vertex="1">
          <mxGeometry x="340" y="350" width="120" height="60" as="geometry" />
        </mxCell>
        <mxCell id="W5sy4UJIiJLeMt3XoaJV-4" value="" style="endArrow=classic;html=1;rounded=0;exitX=1;exitY=0.25;exitDx=0;exitDy=0;" parent="1" source="_i-9csgD6HFUL7W8y_-q-2" edge="1">
          <mxGeometry width="50" height="50" relative="1" as="geometry">
            <mxPoint x="450" y="420" as="sourcePoint" />
            <mxPoint x="350" y="370" as="targetPoint" />
          </mxGeometry>
        </mxCell>
        <mxCell id="W5sy4UJIiJLeMt3XoaJV-5" value="Dai" style="text;html=1;align=center;verticalAlign=middle;resizable=0;points=[];autosize=1;strokeColor=none;fillColor=none;" parent="1" vertex="1">
          <mxGeometry x="260" y="340" width="40" height="30" as="geometry" />
        </mxCell>
        <mxCell id="W5sy4UJIiJLeMt3XoaJV-6" value="cdpManager" style="rounded=1;whiteSpace=wrap;html=1;" parent="1" vertex="1">
          <mxGeometry x="540" y="350" width="120" height="60" as="geometry" />
        </mxCell>
        <mxCell id="W5sy4UJIiJLeMt3XoaJV-7" value="" style="endArrow=classic;html=1;rounded=0;exitX=0.996;exitY=0.417;exitDx=0;exitDy=0;exitPerimeter=0;" parent="1" source="W5sy4UJIiJLeMt3XoaJV-3" edge="1">
          <mxGeometry width="50" height="50" relative="1" as="geometry">
            <mxPoint x="450" y="420" as="sourcePoint" />
            <mxPoint x="540" y="375" as="targetPoint" />
          </mxGeometry>
        </mxCell>
        <mxCell id="W5sy4UJIiJLeMt3XoaJV-8" value="Dai" style="text;html=1;align=center;verticalAlign=middle;resizable=0;points=[];autosize=1;strokeColor=none;fillColor=none;" parent="1" vertex="1">
          <mxGeometry x="480" y="350" width="40" height="30" as="geometry" />
        </mxCell>
        <mxCell id="W5sy4UJIiJLeMt3XoaJV-11" value="" style="rounded=1;whiteSpace=wrap;html=1;" parent="1" vertex="1">
          <mxGeometry x="540" y="450" width="120" height="60" as="geometry" />
        </mxCell>
        <mxCell id="W5sy4UJIiJLeMt3XoaJV-12" value="" style="rounded=1;whiteSpace=wrap;html=1;" parent="1" vertex="1">
          <mxGeometry x="540" y="250" width="120" height="60" as="geometry" />
        </mxCell>
        <mxCell id="W5sy4UJIiJLeMt3XoaJV-15" value="alchemix" style="rounded=1;whiteSpace=wrap;html=1;" parent="1" vertex="1">
          <mxGeometry x="800" y="350" width="120" height="60" as="geometry" />
        </mxCell>
        <mxCell id="W5sy4UJIiJLeMt3XoaJV-16" value="" style="endArrow=classic;html=1;rounded=0;entryX=0;entryY=0.5;entryDx=0;entryDy=0;exitX=1;exitY=0.5;exitDx=0;exitDy=0;" parent="1" source="W5sy4UJIiJLeMt3XoaJV-6" target="W5sy4UJIiJLeMt3XoaJV-15" edge="1">
          <mxGeometry width="50" height="50" relative="1" as="geometry">
            <mxPoint x="620" y="500" as="sourcePoint" />
            <mxPoint x="670" y="450" as="targetPoint" />
          </mxGeometry>
        </mxCell>
        <mxCell id="W5sy4UJIiJLeMt3XoaJV-17" value="Dai" style="text;html=1;align=center;verticalAlign=middle;resizable=0;points=[];autosize=1;strokeColor=none;fillColor=none;" parent="1" vertex="1">
          <mxGeometry x="710" y="350" width="40" height="30" as="geometry" />
        </mxCell>
        <mxCell id="W5sy4UJIiJLeMt3XoaJV-18" value="DEPOSIT" style="text;html=1;align=center;verticalAlign=middle;resizable=0;points=[];autosize=1;strokeColor=none;fillColor=none;fontSize=20;" parent="1" vertex="1">
          <mxGeometry x="530" y="110" width="110" height="40" as="geometry" />
        </mxCell>
        <mxCell id="W5sy4UJIiJLeMt3XoaJV-19" value="1" style="text;html=1;align=center;verticalAlign=middle;resizable=0;points=[];autosize=1;strokeColor=none;fillColor=none;fontSize=20;" parent="1" vertex="1">
          <mxGeometry x="185" y="160" width="30" height="40" as="geometry" />
        </mxCell>
        <mxCell id="W5sy4UJIiJLeMt3XoaJV-20" value="2" style="text;html=1;align=center;verticalAlign=middle;resizable=0;points=[];autosize=1;strokeColor=none;fillColor=none;fontSize=20;" parent="1" vertex="1">
          <mxGeometry x="385" y="160" width="30" height="40" as="geometry" />
        </mxCell>
        <mxCell id="W5sy4UJIiJLeMt3XoaJV-21" value="3" style="text;html=1;align=center;verticalAlign=middle;resizable=0;points=[];autosize=1;strokeColor=none;fillColor=none;fontSize=20;" parent="1" vertex="1">
          <mxGeometry x="585" y="160" width="30" height="40" as="geometry" />
        </mxCell>
        <mxCell id="W5sy4UJIiJLeMt3XoaJV-22" value="4" style="text;html=1;align=center;verticalAlign=middle;resizable=0;points=[];autosize=1;strokeColor=none;fillColor=none;fontSize=20;" parent="1" vertex="1">
          <mxGeometry x="840" y="160" width="30" height="40" as="geometry" />
        </mxCell>
        <mxCell id="W5sy4UJIiJLeMt3XoaJV-23" value="1. Rollup send Dai to the Alchemix Bridge&lt;br style=&quot;font-size: 12px;&quot;&gt;with auxData selecting a specific pool.&lt;br style=&quot;font-size: 12px;&quot;&gt;" style="text;html=1;align=center;verticalAlign=top;resizable=0;points=[];autosize=1;strokeColor=none;fillColor=none;fontSize=12;" parent="1" vertex="1">
          <mxGeometry x="55" y="560" width="240" height="40" as="geometry" />
        </mxCell>
        <mxCell id="yeNm1qruibgV1_No9zNt-3" value="2. The alchemix bridge uses the auxData to route the&amp;nbsp;Dai to the correct manager." style="text;html=1;resizable=0;autosize=1;align=center;verticalAlign=middle;points=[];fillColor=none;strokeColor=none;rounded=0;fontSize=12;" vertex="1" parent="1">
          <mxGeometry x="55" y="610" width="450" height="30" as="geometry" />
        </mxCell>
        <mxCell id="yeNm1qruibgV1_No9zNt-4" value="3. cdpManager which is the owner of the pool send the Dai to alchemix&amp;nbsp;" style="text;html=1;align=center;verticalAlign=middle;resizable=0;points=[];autosize=1;strokeColor=none;fillColor=none;fontSize=12;" vertex="1" parent="1">
          <mxGeometry x="51" y="650" width="400" height="30" as="geometry" />
        </mxCell>
        <mxCell id="yeNm1qruibgV1_No9zNt-7" value="" style="endArrow=classic;html=1;rounded=0;fontSize=20;entryX=1;entryY=0.75;entryDx=0;entryDy=0;exitX=0;exitY=0.75;exitDx=0;exitDy=0;" edge="1" parent="1" source="W5sy4UJIiJLeMt3XoaJV-15" target="W5sy4UJIiJLeMt3XoaJV-6">
          <mxGeometry width="50" height="50" relative="1" as="geometry">
            <mxPoint x="530" y="500" as="sourcePoint" />
            <mxPoint x="580" y="450" as="targetPoint" />
          </mxGeometry>
        </mxCell>
        <mxCell id="yeNm1qruibgV1_No9zNt-8" value="" style="endArrow=classic;html=1;rounded=0;fontSize=20;entryX=1;entryY=0.75;entryDx=0;entryDy=0;exitX=0;exitY=0.75;exitDx=0;exitDy=0;" edge="1" parent="1" source="W5sy4UJIiJLeMt3XoaJV-6" target="W5sy4UJIiJLeMt3XoaJV-3">
          <mxGeometry width="50" height="50" relative="1" as="geometry">
            <mxPoint x="530" y="500" as="sourcePoint" />
            <mxPoint x="580" y="450" as="targetPoint" />
          </mxGeometry>
        </mxCell>
        <mxCell id="yeNm1qruibgV1_No9zNt-9" value="" style="endArrow=classic;html=1;rounded=0;fontSize=20;entryX=1;entryY=0.75;entryDx=0;entryDy=0;exitX=0.017;exitY=0.633;exitDx=0;exitDy=0;exitPerimeter=0;" edge="1" parent="1" source="W5sy4UJIiJLeMt3XoaJV-3" target="_i-9csgD6HFUL7W8y_-q-2">
          <mxGeometry width="50" height="50" relative="1" as="geometry">
            <mxPoint x="530" y="500" as="sourcePoint" />
            <mxPoint x="580" y="450" as="targetPoint" />
          </mxGeometry>
        </mxCell>
        <mxCell id="yeNm1qruibgV1_No9zNt-10" value="&lt;font style=&quot;font-size: 12px;&quot;&gt;alUSD&lt;br style=&quot;font-size: 12px;&quot;&gt;&lt;/font&gt;" style="text;html=1;align=center;verticalAlign=middle;resizable=0;points=[];autosize=1;strokeColor=none;fillColor=none;fontSize=12;" vertex="1" parent="1">
          <mxGeometry x="680" y="405" width="60" height="30" as="geometry" />
        </mxCell>
        <mxCell id="yeNm1qruibgV1_No9zNt-13" value="&lt;font style=&quot;font-size: 12px;&quot;&gt;alUSD&lt;br style=&quot;font-size: 12px;&quot;&gt;&lt;/font&gt;" style="text;html=1;align=center;verticalAlign=middle;resizable=0;points=[];autosize=1;strokeColor=none;fillColor=none;fontSize=12;" vertex="1" parent="1">
          <mxGeometry x="480" y="400" width="60" height="30" as="geometry" />
        </mxCell>
        <mxCell id="yeNm1qruibgV1_No9zNt-14" value="&lt;font style=&quot;font-size: 12px;&quot;&gt;alUSD&lt;br style=&quot;font-size: 12px;&quot;&gt;&lt;/font&gt;" style="text;html=1;align=center;verticalAlign=middle;resizable=0;points=[];autosize=1;strokeColor=none;fillColor=none;fontSize=12;" vertex="1" parent="1">
          <mxGeometry x="260" y="390" width="60" height="30" as="geometry" />
        </mxCell>
        <mxCell id="yeNm1qruibgV1_No9zNt-15" value="&lt;font style=&quot;font-size: 12px;&quot;&gt;zShare&lt;br style=&quot;font-size: 12px;&quot;&gt;&lt;/font&gt;" style="text;html=1;align=center;verticalAlign=middle;resizable=0;points=[];autosize=1;strokeColor=none;fillColor=none;fontSize=12;" vertex="1" parent="1">
          <mxGeometry x="480" y="420" width="60" height="30" as="geometry" />
        </mxCell>
        <mxCell id="yeNm1qruibgV1_No9zNt-17" value="&lt;font style=&quot;font-size: 12px;&quot;&gt;zShare&lt;br style=&quot;font-size: 12px;&quot;&gt;&lt;/font&gt;" style="text;html=1;align=center;verticalAlign=middle;resizable=0;points=[];autosize=1;strokeColor=none;fillColor=none;fontSize=12;" vertex="1" parent="1">
          <mxGeometry x="260" y="410" width="60" height="30" as="geometry" />
        </mxCell>
        <mxCell id="yeNm1qruibgV1_No9zNt-18" value="4. The cdpManager takes out a loan that is the same as the current colalteralization ratio. &lt;br&gt;e.g the pool follows the same patterns as a stand alone account that is left to fully pay off its debt." style="text;html=1;align=center;verticalAlign=middle;resizable=0;points=[];autosize=1;strokeColor=none;fillColor=none;fontSize=12;" vertex="1" parent="1">
          <mxGeometry x="30" y="700" width="540" height="40" as="geometry" />
        </mxCell>
        <mxCell id="yeNm1qruibgV1_No9zNt-19" value="a zShare is returned to the users representing their share of the pool" style="text;html=1;align=center;verticalAlign=middle;resizable=0;points=[];autosize=1;strokeColor=none;fillColor=none;fontSize=12;" vertex="1" parent="1">
          <mxGeometry x="95" y="800" width="390" height="30" as="geometry" />
        </mxCell>
      </root>
    </mxGraphModel>
  </diagram>
  <diagram id="8TPuh6fodXGefGh3Yh6I" name="Page-2">
    <mxGraphModel dx="1422" dy="931" grid="1" gridSize="10" guides="1" tooltips="1" connect="1" arrows="1" fold="1" page="1" pageScale="1" pageWidth="850" pageHeight="1100" math="0" shadow="0">
      <root>
        <mxCell id="0" />
        <mxCell id="1" parent="0" />
        <mxCell id="26pyhqPOloSg6HMKz1BQ-1" value="&lt;b&gt;rollup&lt;br&gt;&lt;/b&gt;" style="rounded=1;whiteSpace=wrap;html=1;" vertex="1" parent="1">
          <mxGeometry x="330" y="430" width="80" height="40" as="geometry" />
        </mxCell>
        <mxCell id="26pyhqPOloSg6HMKz1BQ-2" value="Alchemix Bridge" style="rounded=1;whiteSpace=wrap;html=1;" vertex="1" parent="1">
          <mxGeometry x="510" y="420" width="120" height="60" as="geometry" />
        </mxCell>
        <mxCell id="26pyhqPOloSg6HMKz1BQ-3" value="" style="endArrow=classic;html=1;rounded=0;exitX=1;exitY=0.25;exitDx=0;exitDy=0;" edge="1" parent="1" source="26pyhqPOloSg6HMKz1BQ-1">
          <mxGeometry width="50" height="50" relative="1" as="geometry">
            <mxPoint x="620" y="490" as="sourcePoint" />
            <mxPoint x="520" y="440" as="targetPoint" />
          </mxGeometry>
        </mxCell>
        <mxCell id="26pyhqPOloSg6HMKz1BQ-4" value="zShare" style="text;html=1;align=center;verticalAlign=middle;resizable=0;points=[];autosize=1;strokeColor=none;fillColor=none;" vertex="1" parent="1">
          <mxGeometry x="420" y="410" width="60" height="30" as="geometry" />
        </mxCell>
        <mxCell id="26pyhqPOloSg6HMKz1BQ-5" value="cdpManager" style="rounded=1;whiteSpace=wrap;html=1;" vertex="1" parent="1">
          <mxGeometry x="710" y="420" width="120" height="60" as="geometry" />
        </mxCell>
        <mxCell id="26pyhqPOloSg6HMKz1BQ-6" value="" style="endArrow=classic;html=1;rounded=0;exitX=0.996;exitY=0.417;exitDx=0;exitDy=0;exitPerimeter=0;" edge="1" parent="1" source="26pyhqPOloSg6HMKz1BQ-2">
          <mxGeometry width="50" height="50" relative="1" as="geometry">
            <mxPoint x="620" y="490" as="sourcePoint" />
            <mxPoint x="710" y="445" as="targetPoint" />
          </mxGeometry>
        </mxCell>
        <mxCell id="26pyhqPOloSg6HMKz1BQ-7" value="zShare" style="text;html=1;align=center;verticalAlign=middle;resizable=0;points=[];autosize=1;strokeColor=none;fillColor=none;" vertex="1" parent="1">
          <mxGeometry x="640" y="420" width="60" height="30" as="geometry" />
        </mxCell>
        <mxCell id="26pyhqPOloSg6HMKz1BQ-8" value="" style="rounded=1;whiteSpace=wrap;html=1;" vertex="1" parent="1">
          <mxGeometry x="710" y="520" width="120" height="60" as="geometry" />
        </mxCell>
        <mxCell id="26pyhqPOloSg6HMKz1BQ-9" value="" style="rounded=1;whiteSpace=wrap;html=1;" vertex="1" parent="1">
          <mxGeometry x="710" y="320" width="120" height="60" as="geometry" />
        </mxCell>
        <mxCell id="26pyhqPOloSg6HMKz1BQ-10" value="alchemix" style="rounded=1;whiteSpace=wrap;html=1;" vertex="1" parent="1">
          <mxGeometry x="970" y="420" width="120" height="60" as="geometry" />
        </mxCell>
        <mxCell id="26pyhqPOloSg6HMKz1BQ-11" value="" style="endArrow=classic;html=1;rounded=0;entryX=0;entryY=0.5;entryDx=0;entryDy=0;exitX=1;exitY=0.5;exitDx=0;exitDy=0;" edge="1" parent="1" source="26pyhqPOloSg6HMKz1BQ-5" target="26pyhqPOloSg6HMKz1BQ-10">
          <mxGeometry width="50" height="50" relative="1" as="geometry">
            <mxPoint x="790" y="570" as="sourcePoint" />
            <mxPoint x="840" y="520" as="targetPoint" />
          </mxGeometry>
        </mxCell>
        <mxCell id="26pyhqPOloSg6HMKz1BQ-12" value="&lt;br&gt;" style="text;html=1;align=center;verticalAlign=middle;resizable=0;points=[];autosize=1;strokeColor=none;fillColor=none;" vertex="1" parent="1">
          <mxGeometry x="890" y="420" width="20" height="30" as="geometry" />
        </mxCell>
        <mxCell id="26pyhqPOloSg6HMKz1BQ-13" value="DEPOSIT" style="text;html=1;align=center;verticalAlign=middle;resizable=0;points=[];autosize=1;strokeColor=none;fillColor=none;fontSize=20;" vertex="1" parent="1">
          <mxGeometry x="700" y="180" width="110" height="40" as="geometry" />
        </mxCell>
        <mxCell id="26pyhqPOloSg6HMKz1BQ-14" value="1" style="text;html=1;align=center;verticalAlign=middle;resizable=0;points=[];autosize=1;strokeColor=none;fillColor=none;fontSize=20;" vertex="1" parent="1">
          <mxGeometry x="355" y="230" width="30" height="40" as="geometry" />
        </mxCell>
        <mxCell id="26pyhqPOloSg6HMKz1BQ-15" value="2" style="text;html=1;align=center;verticalAlign=middle;resizable=0;points=[];autosize=1;strokeColor=none;fillColor=none;fontSize=20;" vertex="1" parent="1">
          <mxGeometry x="555" y="230" width="30" height="40" as="geometry" />
        </mxCell>
        <mxCell id="26pyhqPOloSg6HMKz1BQ-16" value="3" style="text;html=1;align=center;verticalAlign=middle;resizable=0;points=[];autosize=1;strokeColor=none;fillColor=none;fontSize=20;" vertex="1" parent="1">
          <mxGeometry x="755" y="230" width="30" height="40" as="geometry" />
        </mxCell>
        <mxCell id="26pyhqPOloSg6HMKz1BQ-17" value="4" style="text;html=1;align=center;verticalAlign=middle;resizable=0;points=[];autosize=1;strokeColor=none;fillColor=none;fontSize=20;" vertex="1" parent="1">
          <mxGeometry x="1010" y="230" width="30" height="40" as="geometry" />
        </mxCell>
        <mxCell id="26pyhqPOloSg6HMKz1BQ-21" value="" style="endArrow=classic;html=1;rounded=0;fontSize=20;entryX=1;entryY=0.75;entryDx=0;entryDy=0;exitX=0;exitY=0.75;exitDx=0;exitDy=0;" edge="1" parent="1" source="26pyhqPOloSg6HMKz1BQ-10" target="26pyhqPOloSg6HMKz1BQ-5">
          <mxGeometry width="50" height="50" relative="1" as="geometry">
            <mxPoint x="700" y="570" as="sourcePoint" />
            <mxPoint x="750" y="520" as="targetPoint" />
          </mxGeometry>
        </mxCell>
        <mxCell id="26pyhqPOloSg6HMKz1BQ-22" value="" style="endArrow=classic;html=1;rounded=0;fontSize=20;entryX=1;entryY=0.75;entryDx=0;entryDy=0;exitX=0;exitY=0.75;exitDx=0;exitDy=0;" edge="1" parent="1" source="26pyhqPOloSg6HMKz1BQ-5" target="26pyhqPOloSg6HMKz1BQ-2">
          <mxGeometry width="50" height="50" relative="1" as="geometry">
            <mxPoint x="700" y="570" as="sourcePoint" />
            <mxPoint x="750" y="520" as="targetPoint" />
          </mxGeometry>
        </mxCell>
        <mxCell id="26pyhqPOloSg6HMKz1BQ-23" value="" style="endArrow=classic;html=1;rounded=0;fontSize=20;entryX=1;entryY=0.75;entryDx=0;entryDy=0;exitX=0.017;exitY=0.633;exitDx=0;exitDy=0;exitPerimeter=0;" edge="1" parent="1" source="26pyhqPOloSg6HMKz1BQ-2" target="26pyhqPOloSg6HMKz1BQ-1">
          <mxGeometry width="50" height="50" relative="1" as="geometry">
            <mxPoint x="700" y="570" as="sourcePoint" />
            <mxPoint x="750" y="520" as="targetPoint" />
          </mxGeometry>
        </mxCell>
        <mxCell id="26pyhqPOloSg6HMKz1BQ-24" value="&lt;font style=&quot;font-size: 12px;&quot;&gt;Dai&lt;br style=&quot;font-size: 12px;&quot;&gt;&lt;/font&gt;" style="text;html=1;align=center;verticalAlign=middle;resizable=0;points=[];autosize=1;strokeColor=none;fillColor=none;fontSize=12;" vertex="1" parent="1">
          <mxGeometry x="860" y="475" width="40" height="30" as="geometry" />
        </mxCell>
        <mxCell id="26pyhqPOloSg6HMKz1BQ-25" value="&lt;font style=&quot;font-size: 12px;&quot;&gt;Dai&lt;br style=&quot;font-size: 12px;&quot;&gt;&lt;/font&gt;" style="text;html=1;align=center;verticalAlign=middle;resizable=0;points=[];autosize=1;strokeColor=none;fillColor=none;fontSize=12;" vertex="1" parent="1">
          <mxGeometry x="660" y="470" width="40" height="30" as="geometry" />
        </mxCell>
        <mxCell id="26pyhqPOloSg6HMKz1BQ-26" value="&lt;font style=&quot;font-size: 12px;&quot;&gt;Dai&lt;br style=&quot;font-size: 12px;&quot;&gt;&lt;/font&gt;" style="text;html=1;align=center;verticalAlign=middle;resizable=0;points=[];autosize=1;strokeColor=none;fillColor=none;fontSize=12;" vertex="1" parent="1">
          <mxGeometry x="440" y="460" width="40" height="30" as="geometry" />
        </mxCell>
        <mxCell id="26pyhqPOloSg6HMKz1BQ-31" value="Text" style="text;html=1;resizable=0;autosize=1;align=center;verticalAlign=middle;points=[];fillColor=none;strokeColor=none;rounded=0;fontSize=12;" vertex="1" parent="1">
          <mxGeometry x="1150" y="725" width="40" height="20" as="geometry" />
        </mxCell>
        <mxCell id="26pyhqPOloSg6HMKz1BQ-33" value="1. Rollup deposits zShare into the alchemix bridge and selects if they wish to repay with a flashloan or by liquidating part of their collateral.&lt;br&gt;&lt;br&gt;2. The alchemix bridge uses the auxData to route the zShare to the correct manager.&lt;br&gt;&lt;br&gt;3. cdpManager which is the owner of the pool either&lt;br&gt;calls alchemix to liduidate collateral to pay of the debt and return the rest&lt;br&gt;Or it takes out a flashloan in Dai, swaps it on curve for alUSD pays of the debt, and uses parts of the freed collateral to pay off the flashloan. The rest is sent back&amp;nbsp;&lt;br&gt;&lt;br&gt;4. The cdpManager takes out a loan that is the same as the current colalteralization ratio.&lt;br&gt;e.g the pool follows the same patterns as a stand alone account that is left to fully pay off its debt.&lt;br&gt;&lt;br&gt;a zShare is returned to the users representing their share of the pool&lt;br&gt;&lt;br&gt;&lt;br&gt;" style="rounded=0;whiteSpace=wrap;html=1;fontSize=12;verticalAlign=top;align=left;" vertex="1" parent="1">
          <mxGeometry x="310" y="630" width="440" height="350" as="geometry" />
        </mxCell>
      </root>
    </mxGraphModel>
  </diagram>
</mxfile>
